<svg width="40" height="40" viewBox="0 0 40 40" fill="none" xmlns="http://www.w3.org/2000/svg">
  <!-- dsh-desktop onboarding whale glyph - 24px whale on a 40px accent-subtle chip (radius-chip 10px) -->
  <rect x="0.5" y="0.5" width="39" height="39" rx="10" fill="#EEF1FF"/>
  <g transform="translate(4.16 4.69) scale(1.32)" stroke="#4D6BFE" stroke-width="1.6" stroke-linecap="round" stroke-linejoin="round">
    <path d="M17.9 12.2 C17.9 8.7, 15.6 6.3, 12 6.1 C9 5.9, 6.3 6.7, 4.7 8.4 C3.1 10, 3 12.6, 4.2 14.4 C5.5 16.6, 10.2 17.3, 14.1 15.7 C15.8 15, 17.1 13.8, 17.9 12.2 Z"/>
    <path d="M17.9 12.2 C19.2 11.1, 20.3 10.1, 21 8.6"/>
    <path d="M17.9 12.2 C19.2 13.4, 20.3 14.4, 21 15.9"/>
    <circle cx="5.2" cy="10.9" r="0.95" fill="#4D6BFE" stroke="none"/>
  </g>
</svg>
